<svg xmlns="http://www.w3.org/2000/svg" viewBox="0 0 193.11 239.09"><defs><style>.a{fill:#fff;}.b{fill:#f40407;fill-rule:evenodd;}</style></defs><title>YouTube Shorts logo - Brandlogos.net</title><rect class="a" x="61.77" y="72.2" width="75.27" height="92.54"/><path class="b" d="M485.89,475.24l60,36.77-60,37.06Zm53.46-77.53c22.56-11.74,50.69-3.1,62.43,18.84a45.25,45.25,0,0,1-19.16,61.77l-18.55,9.89a46.46,46.46,0,0,1,39.25,24.41,45.71,45.71,0,0,1-19.47,61.77l-99.2,51.9C462.09,638,434,629.38,422.22,607.15c-12.05-22.25-3.08-50.05,19.16-61.79l18.53-9.56a46.46,46.46,0,0,1-39.24-24.41,45.65,45.65,0,0,1,19.47-61.79Z" transform="translate(-415.44 -392.46)"/></svg>